<?xml version="1.0" standalone="no"?>
<!DOCTYPE svg PUBLIC "-//W3C//DTD SVG 20010904//EN"
 "http://www.w3.org/TR/2001/REC-SVG-20010904/DTD/svg10.dtd">
<svg version="1.0" xmlns="http://www.w3.org/2000/svg"
 width="768.000000pt" height="1024.000000pt" viewBox="0 0 768.000000 1024.000000"
 preserveAspectRatio="xMidYMid meet">

<g transform="translate(0.000000,1024.000000) scale(0.100000,-0.100000)"
fill="#000000" stroke="none">
<path d="M2270 6972 c-34 -7 -35 -8 -37 -59 l-2 -53 74 7 c51 4 101 1 162 -11
121 -23 198 -47 184 -55 -7 -5 6 -25 39 -59 l50 -52 1 -1792 c1 -986 3 -1828
5 -1870 3 -85 -3 -118 -20 -118 -14 0 -466 -223 -466 -230 0 -10 1605 0 1701
10 128 13 342 69 458 119 280 120 490 307 602 536 58 120 78 196 86 335 15
280 -93 560 -304 781 -158 166 -354 284 -641 384 -63 22 -65 24 -37 30 69 15
246 79 330 120 278 135 468 374 522 660 20 106 12 308 -17 420 -67 256 -285
532 -552 698 -142 89 -333 159 -510 188 -79 13 -1563 23 -1628 11z m1491 -186
c412 -96 712 -373 796 -734 26 -115 24 -340 -6 -447 -75 -275 -257 -466 -539
-565 -157 -55 -215 -62 -552 -58 l-295 3 -3 914 -2 913 267 -5 c189 -4 287
-10 334 -21z m-83 -2027 c178 -19 350 -68 497 -141 243 -122 403 -313 481
-575 53 -177 43 -447 -23 -613 -74 -185 -255 -374 -446 -463 -283 -134 -585
-153 -887 -57 -52 16 -102 30 -111 30 -9 0 -20 7 -23 16 -8 21 -8 1722 0 1763
4 19 13 31 23 32 12 0 11 2 -4 9 -29 13 376 12 493 -1z"/>
</g>
</svg>
